<svg width="76" height="76" viewBox="0 0 76 76" fill="none" xmlns="http://www.w3.org/2000/svg">
<rect width="76" height="76" rx="12" fill="#294E40"/>
<path d="M15 55.2368C15.8889 57.0103 18.2 60.1581 20.3333 58.562C22.4667 56.9659 27.8889 35.2859 30.3333 24.6454C30.7778 22.6503 32.0667 18.3941 33.6667 17.3301C35.2667 16.266 36.5556 17.3301 37 17.9951C37.2222 18.6601 37.5333 20.2562 37 21.3202C36.3333 22.6503 33.6667 53.2417 35 56.5669C36.3333 59.8921 40.3333 58.562 41 56.5669C41.5333 54.9708 47.4444 30.1873 50.3333 17.9951C50.5556 17.3301 51.2667 16 52.3333 16C53.6667 16 55 16.665 55 17.9951C55 19.0591 56.3333 44.5963 57 57.2319" stroke="white" stroke-width="6"/>
</svg>
